<?xml version="1.0" encoding="UTF-8"?>
<svg id="Ebene_1" data-name="Ebene 1" xmlns="http://www.w3.org/2000/svg" viewBox="0 0 308.22 180.73">
  <defs>
    <style>
      .cls-1 {
        fill: #dd3221;
      }

      .cls-1, .cls-2 {
        stroke-width: 0px;
      }

      .cls-2 {
        fill: #fff;
      }
    </style>
  </defs>
  <path class="cls-1" d="m281.97,102.09c-2.07-8.01-9.35-13.93-18.02-13.93-2.49,0-4.86.49-7.03,1.38.17-1.02.27-2.07.27-3.14,0-10.28-8.33-18.61-18.61-18.61-2.5,0-4.89.5-7.07,1.39-3.75-18.56-20.16-32.53-39.82-32.53-14.54,0-27.29,7.64-34.47,19.13-7.14-6.23-16.47-10.01-26.69-10.01-20.76,0-37.87,15.57-40.32,35.66-1.81-.42-3.69-.66-5.63-.66-11.8,0-21.68,8.16-24.36,19.14-1.92-.28-3.89-.44-5.89-.44-22.44,0-40.63,18.19-40.63,40.63s18.19,40.63,40.63,40.63h213.26c22.44,0,40.63-18.19,40.63-40.63,0-17.38-10.91-32.2-26.25-38.01Z"/>
  <path class="cls-1" d="m35.64,95.06c5.76-2.4,12.07-3.73,18.69-3.73.12,0,.25,0,.37,0,5.34-11.03,16.43-18.37,29.03-18.69,3.54-12.09,11.61-22.14,22.16-28.32-10.03-11.07-25.5-16.69-41.2-13.43-23.57,4.9-38.7,27.95-33.81,51.51.95,4.57,2.58,8.81,4.76,12.66Z"/>
  <g>
    <path class="cls-2" d="m32.44,158.44l13.24-34.79h8.51l13.43,34.79h-8.46l-2.83-7.39h-13.47l-2.42,7.39h-7.99Zm22.15-13.24l-3.9-11.24c-.11-.33-.25-.9-.43-1.71-.17-.81-.36-1.8-.55-2.97-.21,1.12-.4,2.13-.59,3.03s-.33,1.49-.43,1.79l-3.75,11.1h9.65Z"/>
    <path class="cls-2" d="m69.75,125.54c0-1.08.39-2,1.16-2.78.78-.78,1.7-1.16,2.78-1.16s2.03.38,2.82,1.15c.78.77,1.18,1.7,1.18,2.79s-.39,2.03-1.18,2.8c-.78.78-1.72,1.16-2.82,1.16s-2-.4-2.78-1.19c-.78-.79-1.16-1.72-1.16-2.78Zm.59,32.89v-23.31h6.75v23.31h-6.75Z"/>
    <path class="cls-2" d="m87.84,158.44h-8.01l8.27-11.84-7.84-11.48h8.46l2.31,4.33c.29.55.54,1.12.77,1.71.23.59.44,1.2.63,1.85.17-.6.39-1.2.64-1.79.25-.59.56-1.2.93-1.82l2.47-4.28h8.03l-7.99,11.34,8.41,11.98h-8.41l-2.73-4.78c-.32-.6-.6-1.2-.84-1.79-.25-.59-.45-1.19-.61-1.79-.16.62-.36,1.22-.62,1.79-.25.58-.59,1.19-1,1.84l-2.88,4.73Z"/>
    <path class="cls-2" d="m134.47,123.64l5.16,18.87c.33,1.2.64,2.49.93,3.87.29,1.38.55,2.92.81,4.63.03-1.44.14-2.86.32-4.27.18-1.4.46-2.82.82-4.24l4.52-18.87h7.34l-9.1,34.79h-7.15l-6.23-22.2c-.3-1.01-.54-2.04-.71-3.07-.17-1.03-.29-2.1-.36-3.21-.08,1.17-.2,2.28-.37,3.33-.17,1.05-.38,2.03-.65,2.95l-6.27,22.2h-7.15l-9.1-34.79h7.44l4.59,19.32c.25,1.11.46,2.31.62,3.6.16,1.29.28,2.7.36,4.22.3-2.01.86-4.56,1.66-7.65l.12-.5,5.11-18.99h7.32Z"/>
    <path class="cls-2" d="m177.75,148.45h-17.52c.27,1.68.88,2.93,1.83,3.77.95.83,2.24,1.25,3.87,1.25,1.24,0,2.3-.24,3.2-.71.89-.48,1.64-1.2,2.25-2.16l5.47,2.73c-1.27,2.04-2.8,3.56-4.61,4.55-1.81.99-3.95,1.48-6.44,1.48-3.77,0-6.76-1.12-8.96-3.37-2.2-2.25-3.3-5.28-3.3-9.08s1.15-6.67,3.46-9.03c2.31-2.36,5.26-3.54,8.85-3.54s6.64,1.11,8.79,3.32c2.15,2.21,3.23,5.22,3.23,9.04,0,.21,0,.43-.02.68-.02.25-.05.61-.1,1.08Zm-6.7-4.09c-.19-1.47-.72-2.59-1.6-3.34-.88-.75-2.08-1.13-3.6-1.13s-2.74.38-3.65,1.13c-.91.75-1.49,1.87-1.75,3.34h10.6Z"/>
    <path class="cls-2" d="m205.41,158.44h-6.56l.1-3.35c-.92,1.47-2.02,2.56-3.32,3.24-1.29.69-2.86,1.03-4.72,1.03-3.09,0-5.58-1.15-7.47-3.45-1.89-2.3-2.84-5.33-2.84-9.1s.93-6.99,2.79-9.18c1.86-2.19,4.45-3.29,7.76-3.29,1.73,0,3.24.39,4.55,1.16,1.31.78,2.4,1.93,3.29,3.47v-3.85h6.42v23.31Zm-6.18-11.69c0-2.09-.53-3.75-1.58-4.97-1.05-1.22-2.48-1.83-4.27-1.83s-3.28.61-4.34,1.82c-1.05,1.21-1.58,2.87-1.58,4.98s.52,3.75,1.56,4.92c1.04,1.17,2.48,1.76,4.31,1.76s3.32-.59,4.35-1.76c1.03-1.17,1.54-2.81,1.54-4.92Z"/>
    <path class="cls-2" d="m211.4,158.44v-18.01h-3.26v-5.3h3.26v-11.48h6.77v11.48h3.26v5.3h-3.26v18.01h-6.77Z"/>
    <path class="cls-2" d="m224.16,158.44v-34.79h6.63v11.05c0,.73-.02,1.45-.07,2.17-.05.72-.12,1.42-.21,2.1,1.39-1.63,2.79-2.81,4.19-3.54,1.4-.73,2.97-1.09,4.69-1.09s3.33.31,4.58.93c1.24.62,2.21,1.54,2.89,2.78.35.65.6,1.38.75,2.2s.23,2.09.23,3.84v14.35h-6.77v-11.53c0-2.87-.33-4.76-1-5.68s-1.81-1.38-3.42-1.38c-.94,0-1.79.19-2.58.58-.78.39-1.44.94-1.96,1.65-.41.55-.71,1.19-.89,1.9-.18.71-.27,1.8-.27,3.26v11.19h-6.77Z"/>
    <path class="cls-2" d="m274.78,148.45h-17.52c.27,1.68.88,2.93,1.83,3.77.95.83,2.24,1.25,3.87,1.25,1.24,0,2.3-.24,3.2-.71.89-.48,1.64-1.2,2.25-2.16l5.47,2.73c-1.27,2.04-2.8,3.56-4.61,4.55-1.81.99-3.95,1.48-6.44,1.48-3.77,0-6.76-1.12-8.96-3.37-2.2-2.25-3.3-5.28-3.3-9.08s1.15-6.67,3.46-9.03c2.31-2.36,5.26-3.54,8.85-3.54s6.64,1.11,8.79,3.32c2.15,2.21,3.23,5.22,3.23,9.04,0,.21,0,.43-.02.68-.02.25-.05.61-.1,1.08Zm-6.7-4.09c-.19-1.47-.72-2.59-1.6-3.34-.88-.75-2.08-1.13-3.6-1.13s-2.74.38-3.65,1.13c-.91.75-1.49,1.87-1.75,3.34h10.6Z"/>
    <path class="cls-2" d="m284.17,141.11c.68-2.27,1.66-3.96,2.93-5.08,1.28-1.13,2.86-1.69,4.74-1.69.43,0,1.13.08,2.11.24.19.03.33.06.43.07l-1.02,7.27c-.51-.21-1.02-.36-1.53-.46-.52-.1-1.06-.15-1.63-.15-2.06,0-3.54.53-4.44,1.58-.9,1.05-1.36,2.82-1.36,5.29v10.27h-6.77v-23.31h6.68l-.14,5.99Z"/>
  </g>
  <path class="cls-1" d="m55.11,29.21c-1.82,0-3.53-1.11-4.21-2.91l-4.51-11.88c-.88-2.32.29-4.92,2.61-5.8,2.32-.88,4.92.29,5.8,2.61l4.51,11.88c.88,2.32-.29,4.92-2.61,5.8-.52.2-1.06.29-1.59.29Z"/>
  <path class="cls-1" d="m33.07,45.09c-1,0-2.01-.33-2.84-1.01l-9.85-8.04c-1.93-1.57-2.21-4.41-.64-6.33,1.57-1.93,4.41-2.21,6.33-.64l9.85,8.04c1.93,1.57,2.21,4.41.64,6.33-.89,1.09-2.18,1.65-3.49,1.65Z"/>
  <path class="cls-1" d="m21.93,69.87c-.24,0-.48-.02-.73-.06l-12.55-2.04c-2.45-.4-4.12-2.71-3.72-5.16.4-2.45,2.72-4.12,5.16-3.72l12.55,2.04c2.45.4,4.12,2.71,3.72,5.16-.36,2.21-2.27,3.78-4.44,3.78Z"/>
  <path class="cls-1" d="m12.77,101.4c-1.82,0-3.53-1.11-4.21-2.91-.88-2.32.29-4.92,2.61-5.8l11.88-4.51c2.32-.88,4.92.29,5.8,2.61.88,2.32-.29,4.92-2.61,5.8l-11.88,4.51c-.52.2-1.06.29-1.59.29Z"/>
  <path class="cls-1" d="m82.14,26.48c-.24,0-.48-.02-.73-.06-2.45-.4-4.12-2.71-3.72-5.16l2.04-12.55c.4-2.45,2.71-4.12,5.16-3.72,2.45.4,4.12,2.71,3.72,5.16l-2.04,12.55c-.36,2.21-2.27,3.78-4.44,3.78Z"/>
  <path class="cls-1" d="m106.91,37.63c-1,0-2.01-.33-2.84-1.01-1.92-1.57-2.21-4.41-.64-6.33l8.04-9.85c1.57-1.93,4.41-2.21,6.33-.64,1.92,1.57,2.21,4.41.64,6.33l-8.04,9.85c-.89,1.09-2.18,1.65-3.49,1.65Z"/>
</svg>